# xmcd
#
# Track frame offsets: 
#        150
#        14356
#        31837
#        46200
#        61318
#        77712
#        96680
#        112394
#        126742
#        140894
#        154196
#        169240
#        184443
#
# Disc length: 2668 seconds
#
# Revision: 1
# Processed by: cddbd v1.5.2PL0 Copyright (c) Steve Scherf et al.
# Submitted via: ExactAudioCopy v0.95b4
#
DISCID=c70a6a0d
DTITLE=Jan Hayston - Die 1ste
DYEAR=1999
DGENRE=Country
TTITLE0=Vor mir steht mein Glück
TTITLE1=Mach Deine Träume wahr
TTITLE2=Alles was ich brauche bist du
TTITLE3=Du machst mir gute Laune
TTITLE4=Drei Kreuze für ein Halleluja
TTITLE5=Liebe verdient Respekt
TTITLE6=Titanic Typ
TTITLE7=Du bist Gefühl - ich bin Vertand
TTITLE8=Unter uns gibt's doch noch Engel
TTITLE9=Zeit zu geh'n
TTITLE10=Dei Bundeswehr - sie ruft und sie trennt
TTITLE11=Uns wirft nichts aus der Bahn
TTITLE12=Nie ohne dich
EXTD=
EXTT0=
EXTT1=
EXTT2=
EXTT3=
EXTT4=
EXTT5=
EXTT6=
EXTT7=
EXTT8=
EXTT9=
EXTT10=
EXTT11=
EXTT12=
PLAYORDER=
